PathFileType	4	(X/Y/Z)	C:\Users\Basilio\Documents\Thesis Gigler\squatting_fais\c3dfiles\038\SLS_front_pre1\markers_experimental.trc
DataRate	CameraRate	NumFrames	NumMarkers	Units	OrigDataRate	OrigDataStartFrame	OrigNumFrames
200.000000	200.000000	4	61	mm	200.000000	639	1279
Frame#	Time	FHD			LBHD			RBHD			C7			T10			CLAV			LSHO			LUUPA			LMUPA			LDUPA			LLEP			LMEP			LUL			LRFIN			RSHO			RUPA1			RMUPA			RDUPA			RLEP			RMEP			RRAD			RUL			RUFIN			LASI			RASI			USACR			LSACR			RSACR			LTHI1			LTHI2			LTHI3			LTHI4			LLFC			LMFC			LTIB1			LTIB2			LTIB3			LTIB4			LLMAL			LMMAL			LHEE			LMT1			LMT2			LMT5			RTHI			RTHI2			RTHI3			RTHI4			RLFC			RMFC			RTIB1			RTIB2			RTIB3			RTIB4			RLMAL			RMMAL			RHEE			RMT1			RMT2			RMT5			LRAD			
		X1	Y1	Z1	X2	Y2	Z2	X3	Y3	Z3	X4	Y4	Z4	X5	Y5	Z5	X6	Y6	Z6	X7	Y7	Z7	X8	Y8	Z8	X9	Y9	Z9	X10	Y10	Z10	X11	Y11	Z11	X12	Y12	Z12	X13	Y13	Z13	X14	Y14	Z14	X15	Y15	Z15	X16	Y16	Z16	X17	Y17	Z17	X18	Y18	Z18	X19	Y19	Z19	X20	Y20	Z20	X21	Y21	Z21	X22	Y22	Z22	X23	Y23	Z23	X24	Y24	Z24	X25	Y25	Z25	X26	Y26	Z26	X27	Y27	Z27	X28	Y28	Z28	X29	Y29	Z29	X30	Y30	Z30	X31	Y31	Z31	X32	Y32	Z32	X33	Y33	Z33	X34	Y34	Z34	X35	Y35	Z35	X36	Y36	Z36	X37	Y37	Z37	X38	Y38	Z38	X39	Y39	Z39	X40	Y40	Z40	X41	Y41	Z41	X42	Y42	Z42	X43	Y43	Z43	X44	Y44	Z44	X45	Y45	Z45	X46	Y46	Z46	X47	Y47	Z47	X48	Y48	Z48	X49	Y49	Z49	X50	Y50	Z50	X51	Y51	Z51	X52	Y52	Z52	X53	Y53	Z53	X54	Y54	Z54	X55	Y55	Z55	X56	Y56	Z56	X57	Y57	Z57	X58	Y58	Z58	X59	Y59	Z59	X60	Y60	Z60	X61	Y61	Z61	

640	3.195	-197.3661346435547	1515.071166992188	-1131.138671875	-354.0276489257813	1467.153564453125	-1192.058837890625	-346.2968750000001	1454.797607421875	-1047.417236328125	-419.1611938476564	1310.365234375	-1107.135498046875	-480.7042541503907	1038.072509765625	-1061.58740234375	-278.5968627929688	1268.84228515625	-1122.05126953125	-353.1976318359376	1321.729614257813	-1250.316772460938	-197.6677551269532	1275.204223632813	-1387.484741210938	-170.1248931884766	1307.817138671875	-1359.411987304688	-128.9157409667969	1284.973999023438	-1396.813232421875	-67.17773437500001	1289.05029296875	-1399.305908203125	-54.50294113159181	1215.660278320313	-1380.136352539063	228.4698638916016	1308.438598632813	-1382.319213867188	292.5894470214844	1326.286499023438	-1295.289916992188	-315.0730285644532	1327.415771484375	-988.6048583984377	-156.4542999267578	1315.197631835938	-874.3731689453127	-122.3534698486328	1322.625610351563	-909.0596923828127	-87.70084381103517	1312.624267578125	-860.5795898437502	-14.69055366516114	1309.46484375	-853.257507324219	-7.732372760772707	1232.6767578125	-871.3403930664065	263.2850646972657	1313.2666015625	-924.444763183594	270.9892883300782	1324.31689453125	-854.636901855469	342.1037902832032	1350.072143554688	-925.053161621094	-316.4766540527344	845.109802246094	-1146.443481445313	-346.0282897949219	875.848327636719	-899.8634033203127	-499.4581909179689	869.3326416015627	-1034.80029296875	-504.0267944335939	835.6528930664065	-1060.999389648438	-509.3939819335939	839.4544677734377	-1004.805419921875	-184.9717407226563	582.0499877929689	-1209.206298828125	-111.1678009033203	537.5396728515626	-1209.976318359375	-76.94593811035158	566.4539184570314	-1186.95068359375	-103.9461898803711	478.213104248047	-1194.126342773438	-79.16235351562501	431.5881347656251	-1181.219604492188	-66.38175201416017	436.5398254394532	-1063.873779296875	-126.294189453125	271.4419860839844	-1079.163452148438	-188.513671875	249.0546875000001	-1138.9130859375	-158.7219390869141	230.4887237548829	-1107.313354492188	-213.9475097656251	180.2649383544922	-1065.474365234375	-358.1652221679688	110.3415679931641	-1077.1025390625	-315.3957214355469	126.416259765625	-1003.531127929688	-417.0877990722657	95.1024627685547	-1016.220947265625	-215.6636810302735	44.59504699707032	-1017.307983398438	-209.7510986328126	44.49401092529298	-1068.221557617188	-257.3997802734376	33.33111572265626	-1112.240844726563	-223.6356048583985	661.5932617187501	-831.0876464843752	-157.0316772460938	657.1622924804689	-832.3941040039065	-138.4187469482422	683.1898193359376	-839.7285766601565	-113.2228469848633	583.3665161132814	-846.2105102539065	2.779964923858643	512.3511352539064	-857.4564208984377	1.56606149673462	508.8733215332032	-978.8477172851565	165.0452117919922	429.3162231445314	-882.972106933594	174.3401794433594	319.2059020996094	-845.4796142578127	202.5054473876954	355.3545227050782	-856.410095214844	247.7845764160157	330.5834350585938	-884.5396728515627	299.1739501953126	200.5594482421876	-851.866149902344	313.4814758300782	229.9334716796876	-932.1968383789065	306.9331359863282	123.5940017700196	-915.539733886719	433.6373901367189	300.9075012207032	-901.0413818359377	424.5456848144532	302.2545471191407	-854.492370605469	415.9797363281251	256.2878723144532	-810.578308105469	nan	nan	nan	
641	3.2	-196.9589233398438	1514.551147460938	-1131.006713867188	-353.6068420410157	1466.539428710938	-1191.950073242188	-345.8319091796876	1454.282836914063	-1047.311767578125	-418.7866821289064	1309.965698242188	-1107.06005859375	-480.5812377929689	1037.629760742188	-1061.620971679688	-278.2742614746094	1268.173950195313	-1121.8642578125	-352.7634887695313	1321.220947265625	-1250.085693359375	-197.0793151855469	1274.89306640625	-1387.384765625	-169.6588897705078	1307.555297851563	-1359.233276367188	-128.4338836669922	1284.559326171875	-1396.761474609375	-66.61965942382814	1288.680908203125	-1399.342529296875	-53.80098724365236	1215.06103515625	-1379.927001953125	228.8616943359376	1308.126342773438	-1382.234008789063	293.3716125488282	1326.21630859375	-1295.013916015625	-314.7588195800782	1326.953002929688	-988.493347167969	-155.9806060791016	1314.720336914063	-874.297058105469	-122.0410079956055	1322.052368164063	-909.0172119140627	-87.3855438232422	1312.103515625	-860.5244750976565	-14.26101398468018	1309.016967773438	-853.1660766601565	-7.58665704727173	1231.5146484375	-871.348815917969	263.5465087890626	1312.473999023438	-923.9952392578127	271.4691467285157	1323.7822265625	-854.683044433594	342.5584106445313	1349.501098632813	-925.1233520507815	-316.6127624511719	844.5058593750002	-1146.227294921875	-346.1837158203126	875.482360839844	-899.8101806640627	-499.5784606933595	868.904968261719	-1034.757690429688	-504.1052246093751	835.2366333007815	-1060.884887695313	-509.6343688964845	838.976013183594	-1004.712036132813	-184.7066192626953	581.6735229492189	-1208.787475585938	-110.8121566772461	537.1846923828126	-1209.227294921875	-76.55758666992189	566.2227172851564	-1186.306884765625	-103.5061950683594	477.9765014648439	-1193.4541015625	-78.72158050537111	431.2816772460939	-1180.561279296875	-66.24969482421876	436.1027221679689	-1063.220947265625	-126.0654296875	271.2294006347657	-1078.448974609375	-187.9887390136719	248.8391876220704	-1138.250244140625	-158.7347259521485	230.5789947509766	-1106.7138671875	-213.8530426025391	180.2498321533203	-1064.96484375	-358.0614624023438	110.3149566650391	-1076.845947265625	-315.5333251953126	126.4242248535157	-1003.219970703125	-417.084197998047	95.12171936035158	-1016.113159179688	-215.6654357910157	44.54861450195313	-1017.2900390625	-209.6660919189454	44.50837707519532	-1068.109985351563	-257.3728332519532	33.46774291992188	-1112.119873046875	-223.6763610839844	661.2147216796876	-831.0758056640627	-157.0061340332032	657.0101318359376	-832.374938964844	-138.3822631835938	683.0651245117189	-839.8052978515627	-113.1646041870117	583.2767944335939	-846.3029785156252	3.01883888244629	512.3460693359376	-857.6499633789065	1.614094734191895	508.8837890625001	-978.909851074219	165.1929168701172	429.4220581054689	-883.1638183593752	174.491943359375	319.3150024414063	-845.8197021484377	202.9272003173829	355.4642639160157	-856.6392211914065	247.9570922851563	330.7685241699219	-885.0127563476565	299.4710693359376	200.8453521728516	-852.2145996093752	313.7958984375001	230.1533355712891	-932.7629394531252	308.6017456054688	122.9123687744141	-916.1065673828127	433.8642883300782	301.1967163085938	-901.5297851562502	424.6671447753907	302.5329895019532	-854.9799804687502	416.4092102050782	256.5507202148438	-811.204040527344	nan	nan	nan	
642	3.205	-196.6330566406251	1514.0615234375	-1130.902587890625	-353.1194458007813	1466.111938476563	-1191.795288085938	-345.5318298339844	1453.803466796875	-1047.203125	-418.2498474121095	1309.34375	-1106.897216796875	-480.5221252441407	1037.232055664063	-1061.58740234375	-278.0099182128907	1267.414428710938	-1121.6328125	-352.6082458496094	1320.412963867188	-1250.115600585938	-196.5848083496094	1274.486206054688	-1387.148071289063	-169.178955078125	1307.002075195313	-1358.915649414063	-128.0447692871094	1284.197631835938	-1396.514404296875	-66.00036621093751	1288.581909179688	-1399.455688476563	-53.3733253479004	1214.62353515625	-1379.75634765625	229.3762207031251	1307.82373046875	-1382.188720703125	293.8283081054688	1325.85205078125	-1294.930053710938	-314.2538146972657	1326.537353515625	-988.4559326171877	-155.6145477294922	1314.20556640625	-874.1849365234377	-121.8248291015625	1321.671997070313	-908.8688964843752	-87.08058929443361	1311.525512695313	-860.448181152344	-13.93446731567383	1308.536499023438	-853.1107177734377	-7.218050956726076	1231.421264648438	-871.239929199219	264.0811462402344	1312.302368164063	-924.5523681640627	271.9532165527344	1323.089477539063	-854.6425781250002	342.7868041992188	1348.878295898438	-924.866149902344	-316.7142944335938	843.8887329101565	-1146.084106445313	-346.2390441894532	874.9252929687502	-899.8899536132815	-499.641571044922	868.544128417969	-1034.807006835938	-504.1586303710939	834.7510375976565	-1060.8466796875	-509.7151184082032	838.5999755859377	-1004.69091796875	-184.0630798339844	581.5399780273439	-1208.250366210938	-110.3854064941407	536.8576049804689	-1208.61279296875	-76.26058959960939	566.0911254882814	-1185.778442382813	-103.5737533569336	478.0362243652345	-1192.886962890625	-78.20427703857423	431.152313232422	-1179.970581054688	-65.87925720214845	435.5812072753907	-1062.165771484375	-125.909912109375	271.2766723632813	-1077.900634765625	-187.6278228759766	248.6170196533204	-1137.69287109375	-158.4846801757813	230.3303833007813	-1106.082153320313	-213.7738189697266	180.2485656738282	-1064.4248046875	-357.8695068359376	110.4059448242188	-1076.643798828125	-315.5513610839844	126.3675613403321	-1002.759582519531	-417.0290832519532	95.1124725341797	-1016.03369140625	-215.6337127685547	44.41569519042969	-1017.195007324219	-209.6853485107422	44.53591537475587	-1068.053588867188	-257.3696899414063	33.57020568847657	-1112.011962890625	-223.5363006591797	660.9952392578126	-830.9749145507815	-156.9630126953125	656.8554687500001	-832.442321777344	-138.3782348632813	682.9980468750001	-839.8221435546877	-113.0388793945313	583.2128906250001	-846.3125610351565	3.28392791748047	512.3790283203126	-857.7628173828127	1.667346000671387	508.9610595703126	-979.0535278320315	165.4271850585938	429.4890136718751	-883.4903564453127	174.7456817626953	319.3972473144532	-846.0711059570315	203.207260131836	355.5036315917969	-856.8602294921877	248.2234191894532	330.9962768554688	-885.3337402343752	299.8541870117188	201.0453643798829	-852.6081542968752	314.0007019042969	230.2319030761719	-933.1544189453127	307.8010864257813	123.8642272949219	-916.1900634765627	434.0645446777345	301.4572143554688	-902.0413818359377	425.0129699707032	302.7589721679688	-855.2338867187502	416.7310485839845	256.8429870605469	-811.722351074219	nan	nan	nan	
643	3.21	-196.1404266357422	1513.460205078125	-1130.54052734375	-352.8495178222657	1465.533081054688	-1191.649658203125	-345.2359619140626	1453.089599609375	-1046.94287109375	-417.8553466796876	1308.896728515625	-1106.85986328125	-480.499969482422	1036.850463867188	-1061.592407226563	-277.5968933105469	1266.825073242188	-1121.476684570313	-352.2090454101563	1319.680786132813	-1250.01416015625	-196.1353149414063	1274.117431640625	-1386.98583984375	-168.8347625732422	1306.622436523438	-1358.857543945313	-127.5677261352539	1283.77490234375	-1396.310424804688	-65.61705017089845	1288.041625976563	-1398.968139648438	-52.82081604003908	1214.183837890625	-1379.63427734375	229.8536834716797	1307.457397460938	-1382.073974609375	294.2493896484376	1325.374145507813	-1294.982299804688	-313.9389343261719	1325.533081054688	-988.034362792969	-154.9335174560547	1313.450805664063	-874.529235839844	-121.6194915771485	1321.22021484375	-908.7656860351565	-86.69082641601564	1310.976684570313	-860.3447265625002	-13.76343154907227	1308.101440429688	-852.9449462890627	-6.855344295501711	1230.995727539063	-871.1888427734377	264.3591918945313	1311.68896484375	-924.3113403320315	272.3440856933594	1322.640014648438	-854.489440917969	343.0960998535157	1348.167846679688	-924.8168945312502	-316.6199951171876	843.321228027344	-1146.081787109375	-346.4661865234376	874.2110595703127	-900.0377197265627	-499.8479309082032	868.1760864257815	-1034.767578125	-504.3039550781251	834.1694946289065	-1060.853881835938	-509.7719116210939	838.1343994140627	-1004.640563964844	-183.9190216064453	580.8421020507814	-1207.708862304688	-109.9606018066407	536.5262451171876	-1208.079956054688	-76.03162384033205	565.8568115234376	-1185.249877929688	-103.1478652954102	477.7662658691407	-1192.17529296875	-78.13821411132814	430.5370178222657	-1179.245849609375	-65.70330047607423	435.8085327148439	-1061.593139648438	-125.7102355957032	271.0812683105469	-1077.092651367188	-187.3726348876953	248.4621124267579	-1137.2431640625	-158.2882080078125	230.1942138671876	-1105.385498046875	-213.6629028320313	180.1759796142578	-1064.005493164063	-357.8692321777344	110.4718780517578	-1076.439086914063	-315.5941772460938	126.2201461791992	-1002.446350097656	-417.0684204101564	95.09710693359376	-1015.978515625	-215.6496734619141	44.28163528442384	-1017.143981933594	-209.5565032958985	44.61428451538087	-1067.967651367188	-257.0298156738282	33.39908599853516	-1111.888305664063	-223.4475860595704	660.8537597656251	-830.9414672851565	-156.9073638916016	656.7224121093751	-832.5412597656252	-138.3848876953125	682.9224243164064	-839.8778076171877	-112.8588562011719	583.2144775390626	-846.330505371094	3.441299200057984	512.4385375976564	-857.8797607421877	1.804640650749207	508.993865966797	-979.159362792969	165.784164428711	429.5034484863282	-883.9149169921877	174.9375305175782	319.5750732421876	-846.2766723632815	203.3729858398438	355.5927734375001	-857.1287231445315	248.6154174804688	331.1472778320313	-885.7718505859377	300.1660766601563	201.1065673828126	-853.0518188476565	314.3033142089844	230.4802856445313	-933.637145996094	306.5370788574219	125.0272979736328	-916.238952636719	434.2315368652345	301.6451110839844	-902.4859008789065	425.3797302246095	302.9339599609376	-855.683044433594	416.8991699218751	257.0086059570313	-812.129577636719	nan	nan	nan	
